<svg width="103" height="99" viewBox="0 0 103 99" fill="none" xmlns="http://www.w3.org/2000/svg">
<path d="M53.0127 98.8004C80.3438 98.8004 102.5 76.6832 102.5 49.4002C102.5 22.1172 80.3438 0 53.0127 0C25.6816 0 3.52539 22.1172 3.52539 49.4002C3.52539 76.6832 25.6816 98.8004 53.0127 98.8004Z" fill="url(#paint0_linear_4176_56149)"/>
<path d="M48.7432 43.0984C49.5304 39.919 56.9715 35.2754 60.948 38.075C62.1684 32.0175 63.3101 28.2402 67.2977 25.2563C71.2854 22.2723 77.939 26.1726 79.0076 34.3422C80.0763 30.9839 85.5094 26.4576 89.8739 30.2742C93.9121 33.8058 94.3171 39.7234 93.8953 43.0929H48.7432V43.0984V43.0984Z" fill="url(#paint1_linear_4176_56149)"/>
<path d="M6.59863 47.7229C7.19069 45.3243 12.785 41.8213 15.7746 43.9332C16.6921 39.3637 17.5504 36.514 20.5484 34.263C23.5464 32.0119 28.5488 34.9543 29.3523 41.1173C30.1557 38.5838 34.2404 35.1694 37.5218 38.0486C40.5578 40.7127 40.8622 45.1769 40.5451 47.7188H6.59863V47.7229Z" fill="url(#paint2_linear_4176_56149)"/>
<g filter="url(#filter0_d_4176_56149)">
<path d="M17.9801 32.6969C18.263 32.6969 18.4924 33.1556 18.4924 33.7215C18.4924 34.2874 18.263 34.7461 17.9801 34.7461C17.6971 34.7461 17.4678 34.2874 17.4678 33.7215C17.4678 33.1556 17.6971 32.6969 17.9801 32.6969Z" fill="#E1E4E5"/>
</g>
<g filter="url(#filter1_d_4176_56149)">
<path d="M18.7163 48.0996H18.6939C18.5617 50.4422 17.168 50.4783 17.168 50.4783C17.168 50.4783 18.7048 50.5158 18.7048 53.2226C18.7048 50.5158 20.2418 50.4783 20.2418 50.4783C20.2418 50.4783 18.8485 50.4422 18.7163 48.0996Z" fill="#E1E4E5"/>
</g>
<path fill-rule="evenodd" clip-rule="evenodd" d="M78.3313 27.663L67.3127 16.6348C66.5895 15.9108 65.7307 15.3363 64.7855 14.9442C63.8402 14.5521 62.8269 14.3501 61.8036 14.3496H33.8598C29.5545 14.3496 26.0674 17.8398 26.0674 22.1488V76.7442C26.0674 81.0532 29.5545 84.5436 33.8598 84.5436H72.8221C77.1274 84.5436 80.6145 81.0532 80.6145 76.7442V33.1772C80.614 31.1092 79.7928 29.126 78.3313 27.663V27.663Z" fill="#CCCCCC"/>
<path fill-rule="evenodd" clip-rule="evenodd" d="M36.2539 41.5961C36.2539 40.2551 37.341 39.168 38.682 39.168H62.7301C64.0711 39.168 65.1582 40.2551 65.1582 41.5961C65.1582 42.9371 64.0711 44.0242 62.7301 44.0242H38.682C37.341 44.0242 36.2539 42.9371 36.2539 41.5961ZM36.2539 52.4896C36.2539 51.1486 37.341 50.0615 38.682 50.0615H62.7301C64.0711 50.0615 65.1582 51.1486 65.1582 52.4896C65.1582 53.8306 64.0711 54.9177 62.7301 54.9177H38.682C37.341 54.9177 36.2539 53.8306 36.2539 52.4896ZM36.2539 63.3833C36.2539 62.0422 37.341 60.9551 38.682 60.9551H55.9474C57.2884 60.9551 58.3755 62.0422 58.3755 63.3833C58.3755 64.7243 57.2884 65.8114 55.9474 65.8114H38.682C37.341 65.8114 36.2539 64.7243 36.2539 63.3833Z" fill="white"/>
<path d="M49.1661 84.9986C48.6735 82.186 44.0178 78.0782 41.5298 80.5547C40.7662 75.1965 40.0518 71.8548 37.5569 69.2152C35.0618 66.5756 30.8989 70.026 30.2303 77.2527C29.5617 74.282 26.1622 70.2779 23.4315 73.6541C20.9048 76.7782 20.6515 82.0129 20.9154 84.9937H49.1661V84.9986Z" fill="url(#paint3_linear_4176_56149)"/>
<path d="M47.582 85.0437C48.3865 80.5481 55.9887 73.9824 60.0513 77.9409C61.2983 69.3763 62.4647 64.0351 66.5388 59.816C70.6128 55.5969 77.4106 61.1118 78.5024 72.663C79.5942 67.9145 85.145 61.5147 89.6041 66.911C93.7298 71.9044 90.758 76.1811 90.327 80.9454L47.582 85.0359V85.0437Z" fill="url(#paint4_linear_4176_56149)"/>
<path fill-rule="evenodd" clip-rule="evenodd" d="M20.5868 63.0191C20.714 62.8999 20.9118 62.8999 21.039 63.0191L22.3612 64.2585C22.4278 64.321 22.4656 64.4083 22.4656 64.4996C22.4656 64.591 22.4278 64.6783 22.3612 64.7408L21.039 65.9803C20.9118 66.0996 20.714 66.0996 20.5868 65.9803L19.2646 64.7408C19.198 64.6783 19.1602 64.591 19.1602 64.4996C19.1602 64.4083 19.198 64.321 19.2646 64.2585L20.5868 63.0191ZM20.8129 63.7133L19.974 64.4997L20.8129 65.2861L21.6518 64.4997L20.8129 63.7133Z" fill="#E1E4E5"/>
<path fill-rule="evenodd" clip-rule="evenodd" d="M13.2443 40.2404C12.3582 40.2404 11.6721 40.9226 11.6721 41.7279C11.6721 42.5307 12.3556 43.2152 13.24 43.2152C14.1262 43.2152 14.8121 42.5332 14.8121 41.7279C14.8121 40.9214 14.1293 40.2404 13.2443 40.2404ZM10.8457 41.7279C10.8457 40.4326 11.9361 39.4141 13.2443 39.4141C14.5538 39.4141 15.6385 40.4338 15.6385 41.7279C15.6385 43.0232 14.5483 44.0416 13.24 44.0416C11.9301 44.0416 10.8457 43.0174 10.8457 41.7279ZM83.8964 54.4537C83.3689 54.4537 82.9032 54.912 82.9032 55.5279C82.9032 56.1423 83.3676 56.6021 83.8934 56.6021C84.4208 56.6021 84.8865 56.1439 84.8865 55.5279C84.8865 54.9108 84.4228 54.4537 83.8964 54.4537ZM82.0769 55.5279C82.0769 54.4998 82.8696 53.6274 83.8964 53.6274C84.9244 53.6274 85.7129 54.501 85.7129 55.5279C85.7129 56.556 84.9202 57.4285 83.8934 57.4285C82.8647 57.4285 82.0769 56.5509 82.0769 55.5279Z" fill="#E1E4E5"/>
<path d="M87.9284 35.823L87.5066 35.4011C86.8611 34.7557 85.8147 34.7557 85.1692 35.4011L84.7473 35.823C84.1019 36.4684 84.1019 37.5149 84.7473 38.1603L85.1692 38.5822C85.8147 39.2276 86.8611 39.2276 87.5066 38.5822L87.9284 38.1603C88.5739 37.5149 88.5739 36.4684 87.9284 35.823Z" fill="white"/>
<path d="M23.5871 24.8915C22.0198 26.261 19.3234 25.7417 19.3234 25.7417C19.3234 25.7417 19.1702 23.0017 20.739 21.6331C22.3063 20.2634 25.0014 20.7818 25.0014 20.7818C25.0014 20.7818 25.1546 23.5218 23.5871 24.8915V24.8915Z" fill="url(#paint5_linear_4176_56149)"/>
<path fill-rule="evenodd" clip-rule="evenodd" d="M49.6318 84.8746C49.6318 84.8746 57.7588 74.9398 69.178 74.8003C80.6488 74.6601 85.1643 84.5344 86.0049 85.0448L49.6318 84.8746Z" fill="url(#paint6_linear_4176_56149)"/>
<path d="M95.2739 54.5376C92.9721 56.8803 88.6678 56.3864 88.6678 56.3864C88.6678 56.3864 88.0982 52.0941 90.4021 49.7528C92.7039 47.4101 97.0061 47.9025 97.0061 47.9025C97.0061 47.9025 97.5757 52.1949 95.2739 54.5376Z" fill="url(#paint7_linear_4176_56149)"/>
<path fill-rule="evenodd" clip-rule="evenodd" d="M79.0659 17.4883C79.1618 17.558 79.2155 17.6716 79.2085 17.7899L79.0466 20.5383L78.6997 20.5179L78.8262 20.8416L76.2613 21.8444C76.1509 21.8875 76.0262 21.8715 75.9303 21.8018C75.8345 21.7321 75.7807 21.6184 75.7877 21.5002L75.9502 18.751C75.9582 18.6155 76.0443 18.4971 76.1707 18.4478L78.7351 17.4457C78.8454 17.4026 78.9701 17.4187 79.0659 17.4883ZM78.3658 20.2752L78.4827 18.2907L76.631 19.0142L76.5137 20.9993L78.3658 20.2752Z" fill="#E1E4E5"/>
<g filter="url(#filter2_d_4176_56149)">
<path d="M2.73274 30.9083C3.80706 34.8688 8.54604 36.8912 8.54604 36.8912C8.54604 36.8912 11.5403 32.4905 10.4629 28.5301C9.38853 24.5696 4.65262 22.5469 4.65262 22.5469C4.65262 22.5469 1.65829 26.9477 2.73274 30.9083V30.9083Z" fill="url(#paint8_linear_4176_56149)"/>
</g>
<defs>
<filter id="filter0_d_4176_56149" x="15.4678" y="31.6973" width="5.02441" height="6.04883" filterUnits="userSpaceOnUse" color-interpolation-filters="sRGB">
<feFlood flood-opacity="0" result="BackgroundImageFix"/>
<feColorMatrix in="SourceAlpha" type="matrix" values="0 0 0 0 0 0 0 0 0 0 0 0 0 0 0 0 0 0 127 0" result="hardAlpha"/>
<feOffset dy="1"/>
<feGaussianBlur stdDeviation="1"/>
<feComposite in2="hardAlpha" operator="out"/>
<feColorMatrix type="matrix" values="0 0 0 0 0 0 0 0 0 0 0 0 0 0 0 0 0 0 0.05 0"/>
<feBlend mode="normal" in2="BackgroundImageFix" result="effect1_dropShadow_4176_56149"/>
<feBlend mode="normal" in="SourceGraphic" in2="effect1_dropShadow_4176_56149" result="shape"/>
</filter>
<filter id="filter1_d_4176_56149" x="15.168" y="47.0996" width="7.07422" height="9.12305" filterUnits="userSpaceOnUse" color-interpolation-filters="sRGB">
<feFlood flood-opacity="0" result="BackgroundImageFix"/>
<feColorMatrix in="SourceAlpha" type="matrix" values="0 0 0 0 0 0 0 0 0 0 0 0 0 0 0 0 0 0 127 0" result="hardAlpha"/>
<feOffset dy="1"/>
<feGaussianBlur stdDeviation="1"/>
<feComposite in2="hardAlpha" operator="out"/>
<feColorMatrix type="matrix" values="0 0 0 0 0 0 0 0 0 0 0 0 0 0 0 0 0 0 0.05 0"/>
<feBlend mode="normal" in2="BackgroundImageFix" result="effect1_dropShadow_4176_56149"/>
<feBlend mode="normal" in="SourceGraphic" in2="effect1_dropShadow_4176_56149" result="shape"/>
</filter>
<filter id="filter2_d_4176_56149" x="0.5" y="21.5469" width="12.1963" height="18.3438" filterUnits="userSpaceOnUse" color-interpolation-filters="sRGB">
<feFlood flood-opacity="0" result="BackgroundImageFix"/>
<feColorMatrix in="SourceAlpha" type="matrix" values="0 0 0 0 0 0 0 0 0 0 0 0 0 0 0 0 0 0 127 0" result="hardAlpha"/>
<feOffset dy="1"/>
<feGaussianBlur stdDeviation="1"/>
<feComposite in2="hardAlpha" operator="out"/>
<feColorMatrix type="matrix" values="0 0 0 0 0 0 0 0 0 0 0 0 0 0 0 0 0 0 0.05 0"/>
<feBlend mode="normal" in2="BackgroundImageFix" result="effect1_dropShadow_4176_56149"/>
<feBlend mode="normal" in="SourceGraphic" in2="effect1_dropShadow_4176_56149" result="shape"/>
</filter>
<linearGradient id="paint0_linear_4176_56149" x1="55.1229" y1="154.194" x2="52.082" y2="-107.478" gradientUnits="userSpaceOnUse">
<stop stop-color="white"/>
<stop offset="1" stop-color="#EEEEEE"/>
</linearGradient>
<linearGradient id="paint1_linear_4176_56149" x1="70.4195" y1="53.6616" x2="70.6613" y2="3.75668" gradientUnits="userSpaceOnUse">
<stop stop-color="white"/>
<stop offset="1" stop-color="#EEEEEE"/>
</linearGradient>
<linearGradient id="paint2_linear_4176_56149" x1="22.8954" y1="55.6917" x2="23.0784" y2="18.0441" gradientUnits="userSpaceOnUse">
<stop stop-color="white"/>
<stop offset="1" stop-color="#EEEEEE"/>
</linearGradient>
<linearGradient id="paint3_linear_4176_56149" x1="35.6037" y1="94.3427" x2="35.3013" y2="50.1978" gradientUnits="userSpaceOnUse">
<stop stop-color="white"/>
<stop offset="1" stop-color="#EEEEEE"/>
</linearGradient>
<linearGradient id="paint4_linear_4176_56149" x1="71.7011" y1="99.9796" x2="71.2263" y2="29.4186" gradientUnits="userSpaceOnUse">
<stop stop-color="white"/>
<stop offset="1" stop-color="#EEEEEE"/>
</linearGradient>
<linearGradient id="paint5_linear_4176_56149" x1="17.398" y1="29.5062" x2="29.1704" y2="13.8228" gradientUnits="userSpaceOnUse">
<stop stop-color="white"/>
<stop offset="1" stop-color="#EEEEEE"/>
</linearGradient>
<linearGradient id="paint6_linear_4176_56149" x1="70.9976" y1="90.7893" x2="70.9183" y2="63.6495" gradientUnits="userSpaceOnUse">
<stop stop-color="white"/>
<stop offset="1" stop-color="#EEEEEE"/>
</linearGradient>
<linearGradient id="paint7_linear_4176_56149" x1="86.0902" y1="62.5399" x2="102.731" y2="36.4543" gradientUnits="userSpaceOnUse">
<stop stop-color="white"/>
<stop offset="1" stop-color="#EEEEEE"/>
</linearGradient>
<linearGradient id="paint8_linear_4176_56149" x1="7.77232" y1="45.2251" x2="4.77439" y2="6.51542" gradientUnits="userSpaceOnUse">
<stop stop-color="white"/>
<stop offset="1" stop-color="#EEEEEE"/>
</linearGradient>
</defs>
</svg>
